<svg width="897" height="147" viewBox="0 0 897 147" fill="none" xmlns="http://www.w3.org/2000/svg">
<rect width="897" height="147" rx="10.1823" fill="white"/>
<path d="M199.518 58V47.8182H203.078C203.787 47.8182 204.372 47.9408 204.833 48.1861C205.294 48.428 205.637 48.7545 205.862 49.1655C206.087 49.5732 206.2 50.0256 206.2 50.5227C206.2 50.9602 206.122 51.3215 205.966 51.6065C205.814 51.8916 205.612 52.117 205.36 52.2827C205.111 52.4484 204.841 52.571 204.55 52.6506V52.75C204.861 52.7699 205.174 52.8793 205.489 53.0781C205.804 53.277 206.068 53.562 206.28 53.9332C206.492 54.3045 206.598 54.7585 206.598 55.2955C206.598 55.8059 206.482 56.2649 206.25 56.6726C206.018 57.0803 205.652 57.4034 205.151 57.642C204.651 57.8807 203.999 58 203.197 58H199.518ZM200.751 56.9062H203.197C204.003 56.9062 204.574 56.7505 204.913 56.4389C205.254 56.1241 205.425 55.7429 205.425 55.2955C205.425 54.9508 205.337 54.6326 205.161 54.3409C204.985 54.0459 204.735 53.8106 204.41 53.6349C204.086 53.456 203.701 53.3665 203.257 53.3665H200.751V56.9062ZM200.751 52.2926H203.038C203.409 52.2926 203.744 52.2197 204.042 52.0739C204.344 51.928 204.583 51.7225 204.758 51.4574C204.937 51.1922 205.027 50.8807 205.027 50.5227C205.027 50.0753 204.871 49.6958 204.56 49.3842C204.248 49.0694 203.754 48.9119 203.078 48.9119H200.751V52.2926ZM209.041 58H207.749L211.487 47.8182H212.76L216.499 58H215.206L212.164 49.429H212.084L209.041 58ZM209.519 54.0227H214.729V55.1165H209.519V54.0227ZM224.071 58L220.571 53.3267H219.318V58H218.085V47.8182H219.318V52.233H219.855L223.931 47.8182H225.403L221.286 52.2926L225.542 58H224.071ZM227.553 58H226.261L229.999 47.8182H231.272L235.011 58H233.718L230.675 49.429H230.596L227.553 58ZM228.03 54.0227H233.241V55.1165H228.03V54.0227ZM236.596 58V47.8182H237.829V52.3523H243.258V47.8182H244.491V58H243.258V53.446H237.829V58H236.596ZM255.153 51H253.92C253.847 50.6454 253.719 50.3338 253.537 50.0653C253.358 49.7969 253.139 49.5715 252.881 49.3892C252.626 49.2036 252.342 49.0644 252.031 48.9716C251.719 48.8788 251.394 48.8324 251.056 48.8324C250.44 48.8324 249.881 48.9882 249.381 49.2997C248.884 49.6113 248.488 50.0703 248.193 50.6768C247.901 51.2834 247.755 52.0275 247.755 52.9091C247.755 53.7907 247.901 54.5348 248.193 55.1413C248.488 55.7479 248.884 56.2069 249.381 56.5185C249.881 56.83 250.44 56.9858 251.056 56.9858C251.394 56.9858 251.719 56.9394 252.031 56.8466C252.342 56.7538 252.626 56.6162 252.881 56.4339C253.139 56.2483 253.358 56.0213 253.537 55.7528C253.719 55.4811 253.847 55.1695 253.92 54.8182H255.153C255.06 55.3385 254.891 55.8042 254.646 56.2152C254.401 56.6262 254.096 56.9759 253.731 57.2642C253.366 57.5492 252.957 57.7663 252.503 57.9155C252.052 58.0646 251.57 58.1392 251.056 58.1392C250.188 58.1392 249.416 57.9271 248.74 57.5028C248.063 57.0786 247.531 56.4754 247.144 55.6932C246.756 54.911 246.562 53.983 246.562 52.9091C246.562 51.8352 246.756 50.9072 247.144 50.125C247.531 49.3428 248.063 48.7396 248.74 48.3153C249.416 47.8911 250.188 47.679 251.056 47.679C251.57 47.679 252.052 47.7536 252.503 47.9027C252.957 48.0518 253.366 48.2706 253.731 48.5589C254.096 48.844 254.401 49.192 254.646 49.603C254.891 50.0107 255.06 50.4763 255.153 51ZM257.145 47.8182H258.358V55.8324H258.458L264.026 47.8182H265.219V58H263.986V50.0057H263.887L258.338 58H257.145V47.8182ZM267.686 47.8182H268.899V55.8324H268.999L274.567 47.8182H275.76V58H274.527V50.0057H274.428L268.879 58H267.686V47.8182ZM282.165 58V47.8182H285.724C286.434 47.8182 287.019 47.9408 287.479 48.1861C287.94 48.428 288.283 48.7545 288.509 49.1655C288.734 49.5732 288.847 50.0256 288.847 50.5227C288.847 50.9602 288.769 51.3215 288.613 51.6065C288.461 51.8916 288.258 52.117 288.006 52.2827C287.758 52.4484 287.488 52.571 287.196 52.6506V52.75C287.508 52.7699 287.821 52.8793 288.136 53.0781C288.451 53.277 288.714 53.562 288.926 53.9332C289.138 54.3045 289.244 54.7585 289.244 55.2955C289.244 55.8059 289.128 56.2649 288.896 56.6726C288.664 57.0803 288.298 57.4034 287.798 57.642C287.297 57.8807 286.646 58 285.844 58H282.165ZM283.398 56.9062H285.844C286.649 56.9062 287.221 56.7505 287.559 56.4389C287.9 56.1241 288.071 55.7429 288.071 55.2955C288.071 54.9508 287.983 54.6326 287.808 54.3409C287.632 54.0459 287.382 53.8106 287.057 53.6349C286.732 53.456 286.348 53.3665 285.903 53.3665H283.398V56.9062ZM283.398 52.2926H285.685C286.056 52.2926 286.391 52.2197 286.689 52.0739C286.991 51.928 287.229 51.7225 287.405 51.4574C287.584 51.1922 287.673 50.8807 287.673 50.5227C287.673 50.0753 287.518 49.6958 287.206 49.3842C286.894 49.0694 286.401 48.9119 285.724 48.9119H283.398V52.2926ZM295.208 58V47.8182H298.767C299.477 47.8182 300.062 47.9408 300.522 48.1861C300.983 48.428 301.326 48.7545 301.552 49.1655C301.777 49.5732 301.89 50.0256 301.89 50.5227C301.89 50.9602 301.812 51.3215 301.656 51.6065C301.503 51.8916 301.301 52.117 301.049 52.2827C300.801 52.4484 300.531 52.571 300.239 52.6506V52.75C300.551 52.7699 300.864 52.8793 301.179 53.0781C301.494 53.277 301.757 53.562 301.969 53.9332C302.181 54.3045 302.287 54.7585 302.287 55.2955C302.287 55.8059 302.171 56.2649 301.939 56.6726C301.707 57.0803 301.341 57.4034 300.841 57.642C300.34 57.8807 299.689 58 298.887 58H295.208ZM296.441 56.9062H298.887C299.692 56.9062 300.264 56.7505 300.602 56.4389C300.943 56.1241 301.114 55.7429 301.114 55.2955C301.114 54.9508 301.026 54.6326 300.851 54.3409C300.675 54.0459 300.425 53.8106 300.1 53.6349C299.775 53.456 299.391 53.3665 298.946 53.3665H296.441V56.9062ZM296.441 52.2926H298.728C299.099 52.2926 299.434 52.2197 299.732 52.0739C300.034 51.928 300.272 51.7225 300.448 51.4574C300.627 51.1922 300.716 50.8807 300.716 50.5227C300.716 50.0753 300.561 49.6958 300.249 49.3842C299.937 49.0694 299.444 48.9119 298.767 48.9119H296.441V52.2926ZM304.731 58H303.438L307.177 47.8182H308.45L312.188 58H310.896L307.853 49.429H307.773L304.731 58ZM305.208 54.0227H310.418V55.1165H305.208V54.0227ZM313.774 47.8182H315.007V56.8665H318.587V47.8182H319.82V56.8665H323.399V47.8182H324.632V58H313.774V47.8182ZM327.104 58V47.8182H333.249V48.9119H328.337V52.3523H332.931V53.446H328.337V56.9062H333.329V58H327.104ZM335.471 47.8182H336.943L340.403 56.2699H340.523L343.983 47.8182H345.454V58H344.301V50.2642H344.202L341.02 58H339.906L336.724 50.2642H336.625V58H335.471V47.8182ZM351.864 58V47.8182H355.304C356.103 47.8182 356.756 47.9624 357.263 48.2507C357.774 48.5357 358.151 48.9219 358.397 49.4091C358.642 49.8963 358.765 50.4399 358.765 51.0398C358.765 51.6397 358.642 52.1849 358.397 52.6754C358.155 53.166 357.78 53.5571 357.273 53.8487C356.766 54.1371 356.116 54.2812 355.324 54.2812H352.858V53.1875H355.284C355.831 53.1875 356.271 53.093 356.602 52.9041C356.933 52.7152 357.174 52.46 357.323 52.1385C357.475 51.8137 357.552 51.4474 357.552 51.0398C357.552 50.6321 357.475 50.2675 357.323 49.946C357.174 49.6245 356.932 49.3726 356.597 49.1903C356.262 49.0047 355.818 48.9119 355.265 48.9119H353.097V58H351.864ZM360.751 58V47.8182H366.896V48.9119H361.984V52.3523H366.577V53.446H361.984V56.9062H366.975V58H360.751ZM375.263 47.8182V48.9119H370.351V58H369.118V47.8182H375.263ZM377.171 47.8182H378.384V55.8324H378.483L384.051 47.8182H385.245V58H384.012V50.0057H383.912L378.364 58H377.171V47.8182ZM396.303 52.9091C396.303 53.983 396.109 54.911 395.721 55.6932C395.333 56.4754 394.801 57.0786 394.125 57.5028C393.449 57.9271 392.677 58.1392 391.808 58.1392C390.94 58.1392 390.168 57.9271 389.492 57.5028C388.815 57.0786 388.283 56.4754 387.896 55.6932C387.508 54.911 387.314 53.983 387.314 52.9091C387.314 51.8352 387.508 50.9072 387.896 50.125C388.283 49.3428 388.815 48.7396 389.492 48.3153C390.168 47.8911 390.94 47.679 391.808 47.679C392.677 47.679 393.449 47.8911 394.125 48.3153C394.801 48.7396 395.333 49.3428 395.721 50.125C396.109 50.9072 396.303 51.8352 396.303 52.9091ZM395.109 52.9091C395.109 52.0275 394.962 51.2834 394.667 50.6768C394.375 50.0703 393.979 49.6113 393.479 49.2997C392.982 48.9882 392.425 48.8324 391.808 48.8324C391.192 48.8324 390.633 48.9882 390.133 49.2997C389.636 49.6113 389.24 50.0703 388.945 50.6768C388.653 51.2834 388.507 52.0275 388.507 52.9091C388.507 53.7907 388.653 54.5348 388.945 55.1413C389.24 55.7479 389.636 56.2069 390.133 56.5185C390.633 56.83 391.192 56.9858 391.808 56.9858C392.425 56.9858 392.982 56.83 393.479 56.5185C393.979 56.2069 394.375 55.7479 394.667 55.1413C394.962 54.5348 395.109 53.7907 395.109 52.9091ZM398.376 58V47.8182H399.609V52.3523H405.038V47.8182H406.271V58H405.038V53.446H399.609V58H398.376ZM408.739 58V47.8182H414.884V48.9119H409.972V52.3523H414.566V53.446H409.972V56.9062H414.963V58H408.739ZM429.635 52.9091C429.635 53.983 429.441 54.911 429.053 55.6932C428.665 56.4754 428.133 57.0786 427.457 57.5028C426.781 57.9271 426.009 58.1392 425.14 58.1392C424.272 58.1392 423.5 57.9271 422.824 57.5028C422.147 57.0786 421.615 56.4754 421.228 55.6932C420.84 54.911 420.646 53.983 420.646 52.9091C420.646 51.8352 420.84 50.9072 421.228 50.125C421.615 49.3428 422.147 48.7396 422.824 48.3153C423.5 47.8911 424.272 47.679 425.14 47.679C426.009 47.679 426.781 47.8911 427.457 48.3153C428.133 48.7396 428.665 49.3428 429.053 50.125C429.441 50.9072 429.635 51.8352 429.635 52.9091ZM428.441 52.9091C428.441 52.0275 428.294 51.2834 427.999 50.6768C427.707 50.0703 427.311 49.6113 426.811 49.2997C426.314 48.9882 425.757 48.8324 425.14 48.8324C424.524 48.8324 423.965 48.9882 423.465 49.2997C422.968 49.6113 422.572 50.0703 422.277 50.6768C421.985 51.2834 421.839 52.0275 421.839 52.9091C421.839 53.7907 421.985 54.5348 422.277 55.1413C422.572 55.7479 422.968 56.2069 423.465 56.5185C423.965 56.83 424.524 56.9858 425.14 56.9858C425.757 56.9858 426.314 56.83 426.811 56.5185C427.311 56.2069 427.707 55.7479 427.999 55.1413C428.294 54.5348 428.441 53.7907 428.441 52.9091ZM430.727 48.9119V47.8182H438.363V48.9119H435.162V58H433.929V48.9119H430.727ZM448.036 51H446.803C446.73 50.6454 446.602 50.3338 446.42 50.0653C446.241 49.7969 446.022 49.5715 445.764 49.3892C445.508 49.2036 445.225 49.0644 444.914 48.9716C444.602 48.8788 444.277 48.8324 443.939 48.8324C443.323 48.8324 442.764 48.9882 442.264 49.2997C441.767 49.6113 441.37 50.0703 441.075 50.6768C440.784 51.2834 440.638 52.0275 440.638 52.9091C440.638 53.7907 440.784 54.5348 441.075 55.1413C441.37 55.7479 441.767 56.2069 442.264 56.5185C442.764 56.83 443.323 56.9858 443.939 56.9858C444.277 56.9858 444.602 56.9394 444.914 56.8466C445.225 56.7538 445.508 56.6162 445.764 56.4339C446.022 56.2483 446.241 56.0213 446.42 55.7528C446.602 55.4811 446.73 55.1695 446.803 54.8182H448.036C447.943 55.3385 447.774 55.8042 447.529 56.2152C447.283 56.6262 446.978 56.9759 446.614 57.2642C446.249 57.5492 445.84 57.7663 445.386 57.9155C444.935 58.0646 444.453 58.1392 443.939 58.1392C443.071 58.1392 442.299 57.9271 441.622 57.5028C440.946 57.0786 440.414 56.4754 440.026 55.6932C439.639 54.911 439.445 53.983 439.445 52.9091C439.445 51.8352 439.639 50.9072 440.026 50.125C440.414 49.3428 440.946 48.7396 441.622 48.3153C442.299 47.8911 443.071 47.679 443.939 47.679C444.453 47.679 444.935 47.7536 445.386 47.9027C445.84 48.0518 446.249 48.2706 446.614 48.5589C446.978 48.844 447.283 49.192 447.529 49.603C447.774 50.0107 447.943 50.4763 448.036 51ZM450.565 58.1392V56.9858H451.201C451.447 56.9858 451.652 56.9377 451.818 56.8416C451.987 56.7455 452.126 56.6212 452.235 56.4688C452.348 56.3163 452.441 56.1572 452.514 55.9915L452.673 55.6136L449.153 47.8182H450.485L453.289 54.142L455.855 47.8182H457.167L453.647 56.3494C453.508 56.6676 453.349 56.9626 453.17 57.2344C452.994 57.5062 452.754 57.7249 452.449 57.8906C452.148 58.0563 451.738 58.1392 451.221 58.1392H450.565ZM458.85 48.9119V47.8182H466.487V48.9119H463.285V58H462.052V48.9119H458.85ZM476.159 51H474.926C474.853 50.6454 474.725 50.3338 474.543 50.0653C474.364 49.7969 474.145 49.5715 473.887 49.3892C473.632 49.2036 473.348 49.0644 473.037 48.9716C472.725 48.8788 472.4 48.8324 472.062 48.8324C471.446 48.8324 470.887 48.9882 470.387 49.2997C469.89 49.6113 469.494 50.0703 469.199 50.6768C468.907 51.2834 468.761 52.0275 468.761 52.9091C468.761 53.7907 468.907 54.5348 469.199 55.1413C469.494 55.7479 469.89 56.2069 470.387 56.5185C470.887 56.83 471.446 56.9858 472.062 56.9858C472.4 56.9858 472.725 56.9394 473.037 56.8466C473.348 56.7538 473.632 56.6162 473.887 56.4339C474.145 56.2483 474.364 56.0213 474.543 55.7528C474.725 55.4811 474.853 55.1695 474.926 54.8182H476.159C476.066 55.3385 475.897 55.8042 475.652 56.2152C475.406 56.6262 475.101 56.9759 474.737 57.2642C474.372 57.5492 473.963 57.7663 473.509 57.9155C473.058 58.0646 472.576 58.1392 472.062 58.1392C471.194 58.1392 470.422 57.9271 469.745 57.5028C469.069 57.0786 468.537 56.4754 468.15 55.6932C467.762 54.911 467.568 53.983 467.568 52.9091C467.568 51.8352 467.762 50.9072 468.15 50.125C468.537 49.3428 469.069 48.7396 469.745 48.3153C470.422 47.8911 471.194 47.679 472.062 47.679C472.576 47.679 473.058 47.7536 473.509 47.9027C473.963 48.0518 474.372 48.2706 474.737 48.5589C475.101 48.844 475.406 49.192 475.652 49.603C475.897 50.0107 476.066 50.4763 476.159 51ZM477.594 48.9119V47.8182H485.231V48.9119H482.029V58H480.796V48.9119H477.594ZM487.134 58V47.8182H490.693C491.402 47.8182 491.987 47.9408 492.448 48.1861C492.909 48.428 493.252 48.7545 493.477 49.1655C493.703 49.5732 493.815 50.0256 493.815 50.5227C493.815 50.9602 493.737 51.3215 493.582 51.6065C493.429 51.8916 493.227 52.117 492.975 52.2827C492.727 52.4484 492.456 52.571 492.165 52.6506V52.75C492.476 52.7699 492.79 52.8793 493.104 53.0781C493.419 53.277 493.683 53.562 493.895 53.9332C494.107 54.3045 494.213 54.7585 494.213 55.2955C494.213 55.8059 494.097 56.2649 493.865 56.6726C493.633 57.0803 493.267 57.4034 492.766 57.642C492.266 57.8807 491.615 58 490.813 58H487.134ZM488.367 56.9062H490.813C491.618 56.9062 492.19 56.7505 492.528 56.4389C492.869 56.1241 493.04 55.7429 493.04 55.2955C493.04 54.9508 492.952 54.6326 492.776 54.3409C492.601 54.0459 492.35 53.8106 492.026 53.6349C491.701 53.456 491.316 53.3665 490.872 53.3665H488.367V56.9062ZM488.367 52.2926H490.653C491.025 52.2926 491.359 52.2197 491.658 52.0739C491.959 51.928 492.198 51.7225 492.374 51.4574C492.553 51.1922 492.642 50.8807 492.642 50.5227C492.642 50.0753 492.486 49.6958 492.175 49.3842C491.863 49.0694 491.369 48.9119 490.693 48.9119H488.367V52.2926ZM496.776 58.1392V56.9858H497.412C497.658 56.9858 497.863 56.9377 498.029 56.8416C498.198 56.7455 498.337 56.6212 498.446 56.4688C498.559 56.3163 498.652 56.1572 498.725 55.9915L498.884 55.6136L495.364 47.8182H496.696L499.5 54.142L502.066 47.8182H503.378L499.858 56.3494C499.719 56.6676 499.56 56.9626 499.381 57.2344C499.205 57.5062 498.965 57.7249 498.66 57.8906C498.359 58.0563 497.949 58.1392 497.432 58.1392H496.776ZM506.208 47.8182V58H504.975V47.8182H506.208ZM508.431 52.4517V53.5455H505.313V52.4517H508.431ZM517.066 52.9091C517.066 53.983 516.872 54.911 516.485 55.6932C516.097 56.4754 515.565 57.0786 514.889 57.5028C514.213 57.9271 513.44 58.1392 512.572 58.1392C511.704 58.1392 510.931 57.9271 510.255 57.5028C509.579 57.0786 509.047 56.4754 508.659 55.6932C508.272 54.911 508.078 53.983 508.078 52.9091C508.078 51.8352 508.272 50.9072 508.659 50.125C509.047 49.3428 509.579 48.7396 510.255 48.3153C510.931 47.8911 511.704 47.679 512.572 47.679C513.44 47.679 514.213 47.8911 514.889 48.3153C515.565 48.7396 516.097 49.3428 516.485 50.125C516.872 50.9072 517.066 51.8352 517.066 52.9091ZM515.873 52.9091C515.873 52.0275 515.726 51.2834 515.431 50.6768C515.139 50.0703 514.743 49.6113 514.242 49.2997C513.745 48.9882 513.188 48.8324 512.572 48.8324C511.955 48.8324 511.397 48.9882 510.897 49.2997C510.399 49.6113 510.003 50.0703 509.708 50.6768C509.417 51.2834 509.271 52.0275 509.271 52.9091C509.271 53.7907 509.417 54.5348 509.708 55.1413C510.003 55.7479 510.399 56.2069 510.897 56.5185C511.397 56.83 511.955 56.9858 512.572 56.9858C513.188 56.9858 513.745 56.83 514.242 56.5185C514.743 56.2069 515.139 55.7479 515.431 55.1413C515.726 54.5348 515.873 53.7907 515.873 52.9091ZM518.583 48.9119V47.8182H526.219V48.9119H523.017V58H521.784V48.9119H518.583ZM528.339 58.0795C528.094 58.0795 527.884 57.9917 527.708 57.8161C527.532 57.6404 527.444 57.4299 527.444 57.1847C527.444 56.9394 527.532 56.7289 527.708 56.5533C527.884 56.3776 528.094 56.2898 528.339 56.2898C528.585 56.2898 528.795 56.3776 528.971 56.5533C529.146 56.7289 529.234 56.9394 529.234 57.1847C529.234 57.3471 529.193 57.4962 529.11 57.6321C529.03 57.768 528.923 57.8774 528.787 57.9602C528.654 58.0398 528.505 58.0795 528.339 58.0795ZM543.053 47.8182V58H541.82V48.9119H536.689V58H535.456V47.8182H543.053ZM554.131 52.9091C554.131 53.983 553.937 54.911 553.549 55.6932C553.161 56.4754 552.629 57.0786 551.953 57.5028C551.277 57.9271 550.505 58.1392 549.636 58.1392C548.768 58.1392 547.996 57.9271 547.32 57.5028C546.644 57.0786 546.112 56.4754 545.724 55.6932C545.336 54.911 545.142 53.983 545.142 52.9091C545.142 51.8352 545.336 50.9072 545.724 50.125C546.112 49.3428 546.644 48.7396 547.32 48.3153C547.996 47.8911 548.768 47.679 549.636 47.679C550.505 47.679 551.277 47.8911 551.953 48.3153C552.629 48.7396 553.161 49.3428 553.549 50.125C553.937 50.9072 554.131 51.8352 554.131 52.9091ZM552.938 52.9091C552.938 52.0275 552.79 51.2834 552.495 50.6768C552.203 50.0703 551.807 49.6113 551.307 49.2997C550.81 48.9882 550.253 48.8324 549.636 48.8324C549.02 48.8324 548.461 48.9882 547.961 49.2997C547.464 49.6113 547.068 50.0703 546.773 50.6768C546.481 51.2834 546.335 52.0275 546.335 52.9091C546.335 53.7907 546.481 54.5348 546.773 55.1413C547.068 55.7479 547.464 56.2069 547.961 56.5185C548.461 56.83 549.02 56.9858 549.636 56.9858C550.253 56.9858 550.81 56.83 551.307 56.5185C551.807 56.2069 552.203 55.7479 552.495 55.1413C552.79 54.5348 552.938 53.7907 552.938 52.9091ZM563.82 47.8182V58H562.587V48.9119H557.457V58H556.224V47.8182H563.82ZM566.307 58V47.8182H569.748C570.546 47.8182 571.199 47.9624 571.707 48.2507C572.217 48.5357 572.595 48.9219 572.84 49.4091C573.085 49.8963 573.208 50.4399 573.208 51.0398C573.208 51.6397 573.085 52.1849 572.84 52.6754C572.598 53.166 572.224 53.5571 571.716 53.8487C571.209 54.1371 570.56 54.2812 569.768 54.2812H567.302V53.1875H569.728C570.275 53.1875 570.714 53.093 571.045 52.9041C571.377 52.7152 571.617 52.46 571.766 52.1385C571.919 51.8137 571.995 51.4474 571.995 51.0398C571.995 50.6321 571.919 50.2675 571.766 49.946C571.617 49.6245 571.375 49.3726 571.04 49.1903C570.706 49.0047 570.261 48.9119 569.708 48.9119H567.54V58H566.307ZM583.785 52.9091C583.785 53.983 583.591 54.911 583.203 55.6932C582.816 56.4754 582.284 57.0786 581.607 57.5028C580.931 57.9271 580.159 58.1392 579.291 58.1392C578.422 58.1392 577.65 57.9271 576.974 57.5028C576.298 57.0786 575.766 56.4754 575.378 55.6932C574.99 54.911 574.796 53.983 574.796 52.9091C574.796 51.8352 574.99 50.9072 575.378 50.125C575.766 49.3428 576.298 48.7396 576.974 48.3153C577.65 47.8911 578.422 47.679 579.291 47.679C580.159 47.679 580.931 47.8911 581.607 48.3153C582.284 48.7396 582.816 49.3428 583.203 50.125C583.591 50.9072 583.785 51.8352 583.785 52.9091ZM582.592 52.9091C582.592 52.0275 582.444 51.2834 582.149 50.6768C581.858 50.0703 581.462 49.6113 580.961 49.2997C580.464 48.9882 579.907 48.8324 579.291 48.8324C578.674 48.8324 578.116 48.9882 577.615 49.2997C577.118 49.6113 576.722 50.0703 576.427 50.6768C576.135 51.2834 575.99 52.0275 575.99 52.9091C575.99 53.7907 576.135 54.5348 576.427 55.1413C576.722 55.7479 577.118 56.2069 577.615 56.5185C578.116 56.83 578.674 56.9858 579.291 56.9858C579.907 56.9858 580.464 56.83 580.961 56.5185C581.462 56.2069 581.858 55.7479 582.149 55.1413C582.444 54.5348 582.592 53.7907 582.592 52.9091ZM585.858 58V47.8182H592.003V48.9119H587.091V52.0938H589.676C590.406 52.0938 591.02 52.2131 591.521 52.4517C592.025 52.6903 592.406 53.0268 592.664 53.4609C592.926 53.8951 593.057 54.4072 593.057 54.9972C593.057 55.5871 592.926 56.1075 592.664 56.5582C592.406 57.009 592.025 57.362 591.521 57.6172C591.02 57.8724 590.406 58 589.676 58H585.858ZM587.091 56.9261H589.676C590.14 56.9261 590.533 56.8333 590.855 56.6477C591.179 56.4588 591.425 56.2169 591.59 55.9219C591.759 55.6236 591.844 55.3087 591.844 54.9773C591.844 54.4901 591.657 54.0708 591.282 53.7195C590.908 53.3648 590.372 53.1875 589.676 53.1875H587.091V56.9261ZM595.624 58.1392V56.9858H596.26C596.505 56.9858 596.711 56.9377 596.876 56.8416C597.045 56.7455 597.185 56.6212 597.294 56.4688C597.407 56.3163 597.5 56.1572 597.572 55.9915L597.732 55.6136L594.212 47.8182H595.544L598.348 54.142L600.913 47.8182H602.226L598.706 56.3494C598.567 56.6676 598.408 56.9626 598.229 57.2344C598.053 57.5062 597.813 57.7249 597.508 57.8906C597.206 58.0563 596.797 58.1392 596.28 58.1392H595.624ZM603.823 47.8182H605.036V55.8324H605.136L610.704 47.8182H611.897V58H610.664V50.0057H610.564L605.016 58H603.823V47.8182ZM608.834 45.2727H609.928C609.928 45.8097 609.743 46.2488 609.371 46.5902C609 46.9316 608.496 47.1023 607.86 47.1023C607.234 47.1023 606.735 46.9316 606.363 46.5902C605.996 46.2488 605.812 45.8097 605.812 45.2727H606.905C606.905 45.5312 606.977 45.7583 607.119 45.9538C607.265 46.1494 607.512 46.2472 607.86 46.2472C608.208 46.2472 608.457 46.1494 608.606 45.9538C608.758 45.7583 608.834 45.5312 608.834 45.2727ZM613.807 48.9119V47.8182H621.444V48.9119H618.242V58H617.009V48.9119H613.807ZM623.346 58V47.8182H629.491V48.9119H624.579V52.3523H629.173V53.446H624.579V56.9062H629.571V58H623.346ZM635.651 58V47.8182H639.211C639.92 47.8182 640.505 47.9408 640.966 48.1861C641.426 48.428 641.77 48.7545 641.995 49.1655C642.22 49.5732 642.333 50.0256 642.333 50.5227C642.333 50.9602 642.255 51.3215 642.099 51.6065C641.947 51.8916 641.745 52.117 641.493 52.2827C641.244 52.4484 640.974 52.571 640.682 52.6506V52.75C640.994 52.7699 641.307 52.8793 641.622 53.0781C641.937 53.277 642.2 53.562 642.413 53.9332C642.625 54.3045 642.731 54.7585 642.731 55.2955C642.731 55.8059 642.615 56.2649 642.383 56.6726C642.151 57.0803 641.784 57.4034 641.284 57.642C640.783 57.8807 640.132 58 639.33 58H635.651ZM636.884 56.9062H639.33C640.136 56.9062 640.707 56.7505 641.045 56.4389C641.387 56.1241 641.557 55.7429 641.557 55.2955C641.557 54.9508 641.47 54.6326 641.294 54.3409C641.118 54.0459 640.868 53.8106 640.543 53.6349C640.218 53.456 639.834 53.3665 639.39 53.3665H636.884V56.9062ZM636.884 52.2926H639.171C639.542 52.2926 639.877 52.2197 640.175 52.0739C640.477 51.928 640.716 51.7225 640.891 51.4574C641.07 51.1922 641.16 50.8807 641.16 50.5227C641.16 50.0753 641.004 49.6958 640.692 49.3842C640.381 49.0694 639.887 48.9119 639.211 48.9119H636.884V52.2926ZM645.671 52.0938H648.575C649.304 52.0938 649.919 52.2131 650.419 52.4517C650.923 52.6903 651.304 53.0268 651.563 53.4609C651.825 53.8951 651.955 54.4072 651.955 54.9972C651.955 55.5871 651.825 56.1075 651.563 56.5582C651.304 57.009 650.923 57.362 650.419 57.6172C649.919 57.8724 649.304 58 648.575 58H644.757V47.8182H645.99V56.9261H648.575C649.039 56.9261 649.432 56.8333 649.753 56.6477C650.078 56.4588 650.323 56.2169 650.489 55.9219C650.658 55.6236 650.742 55.3087 650.742 54.9773C650.742 54.4901 650.555 54.0708 650.181 53.7195C649.806 53.3648 649.271 53.1875 648.575 53.1875H645.671V52.0938ZM654.183 47.8182V58H652.95V47.8182H654.183ZM656.651 58V47.8182H662.796V48.9119H657.884V52.0938H660.469C661.198 52.0938 661.813 52.2131 662.314 52.4517C662.818 52.6903 663.199 53.0268 663.457 53.4609C663.719 53.8951 663.85 54.4072 663.85 54.9972C663.85 55.5871 663.719 56.1075 663.457 56.5582C663.199 57.009 662.818 57.362 662.314 57.6172C661.813 57.8724 661.198 58 660.469 58H656.651ZM657.884 56.9261H660.469C660.933 56.9261 661.326 56.8333 661.648 56.6477C661.972 56.4588 662.218 56.2169 662.383 55.9219C662.552 55.6236 662.637 55.3087 662.637 54.9773C662.637 54.4901 662.45 54.0708 662.075 53.7195C661.701 53.3648 661.165 53.1875 660.469 53.1875H657.884V56.9261ZM665.88 58V47.8182H669.32C670.119 47.8182 670.772 47.9624 671.279 48.2507C671.789 48.5357 672.167 48.9219 672.412 49.4091C672.658 49.8963 672.78 50.4399 672.78 51.0398C672.78 51.6397 672.658 52.1849 672.412 52.6754C672.17 53.166 671.796 53.5571 671.289 53.8487C670.782 54.1371 670.132 54.2812 669.34 54.2812H666.874V53.1875H669.3C669.847 53.1875 670.286 53.093 670.618 52.9041C670.949 52.7152 671.189 52.46 671.338 52.1385C671.491 51.8137 671.567 51.4474 671.567 51.0398C671.567 50.6321 671.491 50.2675 671.338 49.946C671.189 49.6245 670.947 49.3726 670.613 49.1903C670.278 49.0047 669.834 48.9119 669.28 48.9119H667.113V58H665.88ZM674.145 58H672.852L676.591 47.8182H677.864L681.602 58H680.31L677.267 49.429H677.188L674.145 58ZM674.622 54.0227H679.832V55.1165H674.622V54.0227ZM681.442 48.9119V47.8182H689.078V48.9119H685.877V58H684.644V48.9119H681.442ZM691.896 52.0938H694.799C695.529 52.0938 696.143 52.2131 696.644 52.4517C697.148 52.6903 697.529 53.0268 697.787 53.4609C698.049 53.8951 698.18 54.4072 698.18 54.9972C698.18 55.5871 698.049 56.1075 697.787 56.5582C697.529 57.009 697.148 57.362 696.644 57.6172C696.143 57.8724 695.529 58 694.799 58H690.981V47.8182H692.214V56.9261H694.799C695.263 56.9261 695.656 56.8333 695.978 56.6477C696.303 56.4588 696.548 56.2169 696.713 55.9219C696.883 55.6236 696.967 55.3087 696.967 54.9773C696.967 54.4901 696.78 54.0708 696.405 53.7195C696.031 53.3648 695.495 53.1875 694.799 53.1875H691.896V52.0938ZM221.612 82.4659V78.9062H222.268C222.494 78.7008 222.706 78.4107 222.905 78.0362C223.107 77.6584 223.278 77.1546 223.417 76.5249C223.559 75.8918 223.654 75.0881 223.7 74.1136L223.919 69.8182H229.964V78.9062H231.138V82.446H229.964V80H222.785V82.4659H221.612ZM223.74 78.9062H228.791V70.9119H225.033L224.873 74.1136C224.834 74.8561 224.764 75.5289 224.665 76.1321C224.565 76.732 224.438 77.264 224.282 77.728C224.126 78.1887 223.945 78.5814 223.74 78.9062ZM233.001 80V69.8182H236.441C237.24 69.8182 237.893 69.9624 238.4 70.2507C238.91 70.5357 239.288 70.9219 239.533 71.4091C239.779 71.8963 239.901 72.4399 239.901 73.0398C239.901 73.6397 239.779 74.1849 239.533 74.6754C239.291 75.166 238.917 75.5571 238.41 75.8487C237.903 76.1371 237.253 76.2812 236.461 76.2812H233.995V75.1875H236.421C236.968 75.1875 237.407 75.093 237.739 74.9041C238.07 74.7152 238.31 74.46 238.46 74.1385C238.612 73.8137 238.688 73.4474 238.688 73.0398C238.688 72.6321 238.612 72.2675 238.46 71.946C238.31 71.6245 238.068 71.3726 237.734 71.1903C237.399 71.0047 236.955 70.9119 236.401 70.9119H234.234V80H233.001ZM242.424 80.1392V78.9858H243.061C243.306 78.9858 243.512 78.9377 243.677 78.8416C243.846 78.7455 243.985 78.6212 244.095 78.4688C244.208 78.3163 244.3 78.1572 244.373 77.9915L244.532 77.6136L241.012 69.8182H242.345L245.149 76.142L247.714 69.8182H249.027L245.507 78.3494C245.368 78.6676 245.208 78.9626 245.03 79.2344C244.854 79.5062 244.614 79.7249 244.309 79.8906C244.007 80.0563 243.598 80.1392 243.081 80.1392H242.424ZM256.769 69.8182V70.9119H251.857V80H250.624V69.8182H256.769ZM266.844 74.9091C266.844 75.983 266.65 76.911 266.262 77.6932C265.874 78.4754 265.342 79.0786 264.666 79.5028C263.99 79.9271 263.218 80.1392 262.349 80.1392C261.481 80.1392 260.709 79.9271 260.033 79.5028C259.356 79.0786 258.824 78.4754 258.437 77.6932C258.049 76.911 257.855 75.983 257.855 74.9091C257.855 73.8352 258.049 72.9072 258.437 72.125C258.824 71.3428 259.356 70.7396 260.033 70.3153C260.709 69.8911 261.481 69.679 262.349 69.679C263.218 69.679 263.99 69.8911 264.666 70.3153C265.342 70.7396 265.874 71.3428 266.262 72.125C266.65 72.9072 266.844 73.8352 266.844 74.9091ZM265.65 74.9091C265.65 74.0275 265.503 73.2834 265.208 72.6768C264.916 72.0703 264.52 71.6113 264.02 71.2997C263.523 70.9882 262.966 70.8324 262.349 70.8324C261.733 70.8324 261.174 70.9882 260.674 71.2997C260.177 71.6113 259.781 72.0703 259.486 72.6768C259.194 73.2834 259.048 74.0275 259.048 74.9091C259.048 75.7907 259.194 76.5348 259.486 77.1413C259.781 77.7479 260.177 78.2069 260.674 78.5185C261.174 78.83 261.733 78.9858 262.349 78.9858C262.966 78.9858 263.523 78.83 264.02 78.5185C264.52 78.2069 264.916 77.7479 265.208 77.1413C265.503 76.5348 265.65 75.7907 265.65 74.9091ZM268.917 69.8182H270.13V77.8324H270.229L275.797 69.8182H276.991V80H275.758V72.0057H275.658L270.11 80H268.917V69.8182ZM273.928 67.2727H275.022C275.022 67.8097 274.836 68.2488 274.465 68.5902C274.094 68.9316 273.59 69.1023 272.954 69.1023C272.327 69.1023 271.828 68.9316 271.457 68.5902C271.089 68.2488 270.905 67.8097 270.905 67.2727H271.999C271.999 67.5312 272.07 67.7583 272.213 67.9538C272.359 68.1494 272.606 68.2472 272.954 68.2472C273.302 68.2472 273.55 68.1494 273.699 67.9538C273.852 67.7583 273.928 67.5312 273.928 67.2727ZM283.395 80V69.8182H286.836C287.634 69.8182 288.287 69.9624 288.794 70.2507C289.305 70.5357 289.683 70.9219 289.928 71.4091C290.173 71.8963 290.296 72.4399 290.296 73.0398C290.296 73.6397 290.173 74.1849 289.928 74.6754C289.686 75.166 289.311 75.5571 288.804 75.8487C288.297 76.1371 287.648 76.2812 286.856 76.2812H284.39V75.1875H286.816C287.363 75.1875 287.802 75.093 288.133 74.9041C288.465 74.7152 288.705 74.46 288.854 74.1385C289.007 73.8137 289.083 73.4474 289.083 73.0398C289.083 72.6321 289.007 72.2675 288.854 71.946C288.705 71.6245 288.463 71.3726 288.128 71.1903C287.793 71.0047 287.349 70.9119 286.796 70.9119H284.628V80H283.395ZM292.282 80V69.8182H298.427V70.9119H293.515V74.3523H298.109V75.446H293.515V78.9062H298.506V80H292.282ZM306.794 69.8182V70.9119H301.882V80H300.649V69.8182H306.794ZM308.702 69.8182H309.915V77.8324H310.014L315.583 69.8182H316.776V80H315.543V72.0057H315.443L309.895 80H308.702V69.8182ZM327.834 74.9091C327.834 75.983 327.64 76.911 327.252 77.6932C326.864 78.4754 326.332 79.0786 325.656 79.5028C324.98 79.9271 324.208 80.1392 323.34 80.1392C322.471 80.1392 321.699 79.9271 321.023 79.5028C320.347 79.0786 319.815 78.4754 319.427 77.6932C319.039 76.911 318.845 75.983 318.845 74.9091C318.845 73.8352 319.039 72.9072 319.427 72.125C319.815 71.3428 320.347 70.7396 321.023 70.3153C321.699 69.8911 322.471 69.679 323.34 69.679C324.208 69.679 324.98 69.8911 325.656 70.3153C326.332 70.7396 326.864 71.3428 327.252 72.125C327.64 72.9072 327.834 73.8352 327.834 74.9091ZM326.641 74.9091C326.641 74.0275 326.493 73.2834 326.198 72.6768C325.907 72.0703 325.51 71.6113 325.01 71.2997C324.513 70.9882 323.956 70.8324 323.34 70.8324C322.723 70.8324 322.165 70.9882 321.664 71.2997C321.167 71.6113 320.771 72.0703 320.476 72.6768C320.184 73.2834 320.038 74.0275 320.038 74.9091C320.038 75.7907 320.184 76.5348 320.476 77.1413C320.771 77.7479 321.167 78.2069 321.664 78.5185C322.165 78.83 322.723 78.9858 323.34 78.9858C323.956 78.9858 324.513 78.83 325.01 78.5185C325.51 78.2069 325.907 77.7479 326.198 77.1413C326.493 76.5348 326.641 75.7907 326.641 74.9091ZM329.907 80V69.8182H331.14V74.3523H336.569V69.8182H337.802V80H336.569V75.446H331.14V80H329.907ZM341.861 78.608L341.782 79.1449C341.725 79.5227 341.639 79.9271 341.523 80.358C341.41 80.7888 341.293 81.1948 341.17 81.576C341.048 81.9571 340.946 82.2604 340.867 82.4858H339.972C340.015 82.2737 340.071 81.9936 340.141 81.6456C340.211 81.2976 340.28 80.9081 340.35 80.4773C340.423 80.0497 340.482 79.6122 340.529 79.1648L340.588 78.608H341.861ZM348.231 69.8182H349.464V73.2188C349.464 73.7225 349.552 74.1186 349.727 74.407C349.903 74.692 350.152 74.8942 350.473 75.0135C350.795 75.1295 351.174 75.1875 351.612 75.1875C351.887 75.1875 352.154 75.1776 352.412 75.1577C352.671 75.1345 352.923 75.103 353.168 75.0632C353.416 75.0234 353.658 74.9754 353.894 74.919C354.132 74.8627 354.366 74.7997 354.595 74.7301V75.8438C354.373 75.9134 354.152 75.9763 353.933 76.0327C353.718 76.089 353.493 76.1371 353.257 76.1768C353.025 76.2166 352.775 76.2481 352.507 76.2713C352.238 76.2912 351.94 76.3011 351.612 76.3011C350.909 76.3011 350.304 76.2 349.797 75.9979C349.293 75.7957 348.906 75.4692 348.634 75.0185C348.365 74.5677 348.231 73.9678 348.231 73.2188V69.8182ZM354.436 69.8182H355.669V80H354.436V69.8182ZM357.583 70.9119V69.8182H365.219V70.9119H362.017V80H360.784V70.9119H357.583ZM375.289 74.9091C375.289 75.983 375.095 76.911 374.707 77.6932C374.319 78.4754 373.788 79.0786 373.111 79.5028C372.435 79.9271 371.663 80.1392 370.795 80.1392C369.926 80.1392 369.154 79.9271 368.478 79.5028C367.802 79.0786 367.27 78.4754 366.882 77.6932C366.494 76.911 366.3 75.983 366.3 74.9091C366.3 73.8352 366.494 72.9072 366.882 72.125C367.27 71.3428 367.802 70.7396 368.478 70.3153C369.154 69.8911 369.926 69.679 370.795 69.679C371.663 69.679 372.435 69.8911 373.111 70.3153C373.788 70.7396 374.319 71.3428 374.707 72.125C375.095 72.9072 375.289 73.8352 375.289 74.9091ZM374.096 74.9091C374.096 74.0275 373.948 73.2834 373.653 72.6768C373.362 72.0703 372.966 71.6113 372.465 71.2997C371.968 70.9882 371.411 70.8324 370.795 70.8324C370.178 70.8324 369.62 70.9882 369.119 71.2997C368.622 71.6113 368.226 72.0703 367.931 72.6768C367.639 73.2834 367.493 74.0275 367.493 74.9091C367.493 75.7907 367.639 76.5348 367.931 77.1413C368.226 77.7479 368.622 78.2069 369.119 78.5185C369.62 78.83 370.178 78.9858 370.795 78.9858C371.411 78.9858 371.968 78.83 372.465 78.5185C372.966 78.2069 373.362 77.7479 373.653 77.1413C373.948 76.5348 374.096 75.7907 374.096 74.9091ZM377.362 80V69.8182H383.507V70.9119H378.595V74.0938H381.18C381.909 74.0938 382.524 74.2131 383.025 74.4517C383.529 74.6903 383.91 75.0268 384.168 75.4609C384.43 75.8951 384.561 76.4072 384.561 76.9972C384.561 77.5871 384.43 78.1075 384.168 78.5582C383.91 79.009 383.529 79.362 383.025 79.6172C382.524 79.8724 381.909 80 381.18 80H377.362ZM378.595 78.9261H381.18C381.644 78.9261 382.037 78.8333 382.359 78.6477C382.683 78.4588 382.929 78.2169 383.094 77.9219C383.263 77.6236 383.348 77.3087 383.348 76.9773C383.348 76.4901 383.161 76.0708 382.786 75.7195C382.412 75.3648 381.876 75.1875 381.18 75.1875H378.595V78.9261ZM387.505 74.0938H390.409C391.138 74.0938 391.753 74.2131 392.253 74.4517C392.757 74.6903 393.138 75.0268 393.397 75.4609C393.659 75.8951 393.789 76.4072 393.789 76.9972C393.789 77.5871 393.659 78.1075 393.397 78.5582C393.138 79.009 392.757 79.362 392.253 79.6172C391.753 79.8724 391.138 80 390.409 80H386.591V69.8182H387.824V78.9261H390.409C390.873 78.9261 391.266 78.8333 391.587 78.6477C391.912 78.4588 392.157 78.2169 392.323 77.9219C392.492 77.6236 392.576 77.3087 392.576 76.9773C392.576 76.4901 392.389 76.0708 392.015 75.7195C391.64 75.3648 391.105 75.1875 390.409 75.1875H387.505V74.0938ZM396.017 69.8182V80H394.784V69.8182H396.017ZM402.423 80V69.8182H403.656V74.3523H409.085V69.8182H410.318V80H409.085V75.446H403.656V80H402.423ZM413.204 80H411.911L415.65 69.8182H416.922L420.661 80H419.368L416.326 71.429H416.246L413.204 80ZM413.681 76.0227H418.891V77.1165H413.681V76.0227ZM422.247 69.8182H423.46V77.8324H423.559L429.128 69.8182H430.321V80H429.088V72.0057H428.988L423.44 80H422.247V69.8182ZM427.258 67.2727H428.352C428.352 67.8097 428.166 68.2488 427.795 68.5902C427.424 68.9316 426.92 69.1023 426.284 69.1023C425.657 69.1023 425.159 68.9316 424.787 68.5902C424.419 68.2488 424.235 67.8097 424.235 67.2727H425.329C425.329 67.5312 425.4 67.7583 425.543 67.9538C425.689 68.1494 425.936 68.2472 426.284 68.2472C426.632 68.2472 426.88 68.1494 427.03 67.9538C427.182 67.7583 427.258 67.5312 427.258 67.2727ZM432.231 70.9119V69.8182H439.867V70.9119H436.666V80H435.433V70.9119H432.231ZM441.77 69.8182H442.983V77.8324H443.083L448.651 69.8182H449.844V80H448.611V72.0057H448.512L442.963 80H441.77V69.8182ZM463.865 69.8182V80H462.632V70.9119H457.502V80H456.269V69.8182H463.865ZM474.943 74.9091C474.943 75.983 474.749 76.911 474.362 77.6932C473.974 78.4754 473.442 79.0786 472.766 79.5028C472.09 79.9271 471.317 80.1392 470.449 80.1392C469.581 80.1392 468.808 79.9271 468.132 79.5028C467.456 79.0786 466.924 78.4754 466.536 77.6932C466.148 76.911 465.955 75.983 465.955 74.9091C465.955 73.8352 466.148 72.9072 466.536 72.125C466.924 71.3428 467.456 70.7396 468.132 70.3153C468.808 69.8911 469.581 69.679 470.449 69.679C471.317 69.679 472.09 69.8911 472.766 70.3153C473.442 70.7396 473.974 71.3428 474.362 72.125C474.749 72.9072 474.943 73.8352 474.943 74.9091ZM473.75 74.9091C473.75 74.0275 473.603 73.2834 473.308 72.6768C473.016 72.0703 472.62 71.6113 472.119 71.2997C471.622 70.9882 471.065 70.8324 470.449 70.8324C469.832 70.8324 469.274 70.9882 468.773 71.2997C468.276 71.6113 467.88 72.0703 467.585 72.6768C467.294 73.2834 467.148 74.0275 467.148 74.9091C467.148 75.7907 467.294 76.5348 467.585 77.1413C467.88 77.7479 468.276 78.2069 468.773 78.5185C469.274 78.83 469.832 78.9858 470.449 78.9858C471.065 78.9858 471.622 78.83 472.119 78.5185C472.62 78.2069 473.016 77.7479 473.308 77.1413C473.603 76.5348 473.75 75.7907 473.75 74.9091ZM476.141 82.4659V78.9062H476.798C477.023 78.7008 477.235 78.4107 477.434 78.0362C477.636 77.6584 477.807 77.1546 477.946 76.5249C478.089 75.8918 478.183 75.0881 478.229 74.1136L478.448 69.8182H484.494V78.9062H485.667V82.446H484.494V80H477.315V82.4659H476.141ZM478.269 78.9062H483.32V70.9119H479.562L479.403 74.1136C479.363 74.8561 479.293 75.5289 479.194 76.1321C479.094 76.732 478.967 77.264 478.811 77.728C478.655 78.1887 478.475 78.5814 478.269 78.9062ZM488.127 69.8182L490.752 74.054H490.831L493.456 69.8182H494.908L491.706 74.9091L494.908 80H493.456L490.831 75.8438H490.752L488.127 80H486.675L489.956 74.9091L486.675 69.8182H488.127ZM504.939 74.9091C504.939 75.983 504.745 76.911 504.358 77.6932C503.97 78.4754 503.438 79.0786 502.762 79.5028C502.086 79.9271 501.313 80.1392 500.445 80.1392C499.577 80.1392 498.804 79.9271 498.128 79.5028C497.452 79.0786 496.92 78.4754 496.532 77.6932C496.145 76.911 495.951 75.983 495.951 74.9091C495.951 73.8352 496.145 72.9072 496.532 72.125C496.92 71.3428 497.452 70.7396 498.128 70.3153C498.804 69.8911 499.577 69.679 500.445 69.679C501.313 69.679 502.086 69.8911 502.762 70.3153C503.438 70.7396 503.97 71.3428 504.358 72.125C504.745 72.9072 504.939 73.8352 504.939 74.9091ZM503.746 74.9091C503.746 74.0275 503.599 73.2834 503.304 72.6768C503.012 72.0703 502.616 71.6113 502.115 71.2997C501.618 70.9882 501.061 70.8324 500.445 70.8324C499.829 70.8324 499.27 70.9882 498.77 71.2997C498.272 71.6113 497.876 72.0703 497.581 72.6768C497.29 73.2834 497.144 74.0275 497.144 74.9091C497.144 75.7907 497.29 76.5348 497.581 77.1413C497.876 77.7479 498.272 78.2069 498.77 78.5185C499.27 78.83 499.829 78.9858 500.445 78.9858C501.061 78.9858 501.618 78.83 502.115 78.5185C502.616 78.2069 503.012 77.7479 503.304 77.1413C503.599 76.5348 503.746 75.7907 503.746 74.9091ZM506.137 82.4659V78.9062H506.794C507.019 78.7008 507.231 78.4107 507.43 78.0362C507.632 77.6584 507.803 77.1546 507.942 76.5249C508.085 75.8918 508.179 75.0881 508.226 74.1136L508.444 69.8182H514.49V78.9062H515.663V82.446H514.49V80H507.311V82.4659H506.137ZM508.265 78.9062H513.316V70.9119H509.558L509.399 74.1136C509.359 74.8561 509.289 75.5289 509.19 76.1321C509.091 76.732 508.963 77.264 508.807 77.728C508.651 78.1887 508.471 78.5814 508.265 78.9062ZM524.447 80H523.214V70.9119H521.046C520.496 70.9119 520.053 70.9964 519.719 71.1655C519.384 71.3312 519.14 71.5665 518.988 71.8714C518.835 72.1764 518.759 72.5327 518.759 72.9403C518.759 73.348 518.834 73.6993 518.983 73.9943C519.135 74.286 519.377 74.5114 519.709 74.6705C520.043 74.8295 520.483 74.9091 521.026 74.9091H523.77V76.0227H520.986C520.198 76.0227 519.55 75.8918 519.042 75.63C518.535 75.3648 518.159 75.0002 517.914 74.5362C517.669 74.0722 517.546 73.5402 517.546 72.9403C517.546 72.3404 517.669 71.8052 517.914 71.3345C518.159 70.8639 518.537 70.4943 519.047 70.2259C519.558 69.9541 520.211 69.8182 521.006 69.8182H524.447V80ZM519.654 75.4261H521.046L518.58 80H517.148L519.654 75.4261ZM538.771 78.9062L538.632 82.4062H537.419V80H536.444V78.9062H538.771ZM526.919 69.8182H528.152V78.8665H531.731V69.8182H532.964V78.8665H536.544V69.8182H537.777V80H526.919V69.8182ZM540.645 69.8182H541.858V77.8324H541.958L547.526 69.8182H548.719V80H547.486V72.0057H547.387L541.838 80H540.645V69.8182ZM551.186 80V69.8182H557.331V70.9119H552.419V74.3523H557.013V75.446H552.419V78.9062H557.411V80H551.186ZM563.491 80V69.8182H567.051C567.76 69.8182 568.345 69.9408 568.806 70.1861C569.266 70.428 569.609 70.7545 569.835 71.1655C570.06 71.5732 570.173 72.0256 570.173 72.5227C570.173 72.9602 570.095 73.3215 569.939 73.6065C569.787 73.8916 569.584 74.117 569.333 74.2827C569.084 74.4484 568.814 74.571 568.522 74.6506V74.75C568.834 74.7699 569.147 74.8793 569.462 75.0781C569.777 75.277 570.04 75.562 570.252 75.9332C570.464 76.3045 570.571 76.7585 570.571 77.2955C570.571 77.8059 570.455 78.2649 570.223 78.6726C569.991 79.0803 569.624 79.4034 569.124 79.642C568.623 79.8807 567.972 80 567.17 80H563.491ZM564.724 78.9062H567.17C567.975 78.9062 568.547 78.7505 568.885 78.4389C569.227 78.1241 569.397 77.7429 569.397 77.2955C569.397 76.9508 569.309 76.6326 569.134 76.3409C568.958 76.0459 568.708 75.8106 568.383 75.6349C568.058 75.456 567.674 75.3665 567.23 75.3665H564.724V78.9062ZM564.724 74.2926H567.011C567.382 74.2926 567.717 74.2197 568.015 74.0739C568.317 73.928 568.555 73.7225 568.731 73.4574C568.91 73.1922 569 72.8807 569 72.5227C569 72.0753 568.844 71.6958 568.532 71.3842C568.221 71.0694 567.727 70.9119 567.051 70.9119H564.724V74.2926ZM573.014 80H571.721L575.46 69.8182H576.733L580.471 80H579.179L576.136 71.429H576.057L573.014 80ZM573.491 76.0227H578.702V77.1165H573.491V76.0227ZM582.057 69.8182H583.529L586.989 78.2699H587.109L590.569 69.8182H592.04V80H590.887V72.2642H590.788L587.606 80H586.492L583.31 72.2642H583.211V80H582.057V69.8182ZM598.45 80V69.8182H602.01C602.719 69.8182 603.304 69.9408 603.765 70.1861C604.225 70.428 604.568 70.7545 604.794 71.1655C605.019 71.5732 605.132 72.0256 605.132 72.5227C605.132 72.9602 605.054 73.3215 604.898 73.6065C604.746 73.8916 604.543 74.117 604.292 74.2827C604.043 74.4484 603.773 74.571 603.481 74.6506V74.75C603.793 74.7699 604.106 74.8793 604.421 75.0781C604.736 75.277 604.999 75.562 605.211 75.9332C605.423 76.3045 605.53 76.7585 605.53 77.2955C605.53 77.8059 605.414 78.2649 605.181 78.6726C604.949 79.0803 604.583 79.4034 604.083 79.642C603.582 79.8807 602.931 80 602.129 80H598.45ZM599.683 78.9062H602.129C602.934 78.9062 603.506 78.7505 603.844 78.4389C604.186 78.1241 604.356 77.7429 604.356 77.2955C604.356 76.9508 604.268 76.6326 604.093 76.3409C603.917 76.0459 603.667 75.8106 603.342 75.6349C603.017 75.456 602.633 75.3665 602.189 75.3665H599.683V78.9062ZM599.683 74.2926H601.97C602.341 74.2926 602.676 74.2197 602.974 74.0739C603.276 73.928 603.514 73.7225 603.69 73.4574C603.869 73.1922 603.958 72.8807 603.958 72.5227C603.958 72.0753 603.803 71.6958 603.491 71.3842C603.18 71.0694 602.686 70.9119 602.01 70.9119H599.683V74.2926ZM607.973 80H606.68L610.419 69.8182H611.692L615.43 80H614.138L611.095 71.429H611.016L607.973 80ZM608.45 76.0227H613.661V77.1165H608.45V76.0227ZM623.002 80L619.502 75.3267H618.249V80H617.016V69.8182H618.249V74.233H618.786L622.863 69.8182H624.335L620.218 74.2926L624.474 80H623.002ZM626.485 80H625.192L628.931 69.8182H630.204L633.942 80H632.65L629.607 71.429H629.527L626.485 80ZM626.962 76.0227H632.172V77.1165H626.962V76.0227ZM635.528 80V69.8182H636.761V74.3523H642.19V69.8182H643.423V80H642.19V75.446H636.761V80H635.528ZM654.085 73H652.852C652.779 72.6454 652.651 72.3338 652.469 72.0653C652.29 71.7969 652.071 71.5715 651.813 71.3892C651.557 71.2036 651.274 71.0644 650.962 70.9716C650.651 70.8788 650.326 70.8324 649.988 70.8324C649.371 70.8324 648.813 70.9882 648.313 71.2997C647.815 71.6113 647.419 72.0703 647.124 72.6768C646.833 73.2834 646.687 74.0275 646.687 74.9091C646.687 75.7907 646.833 76.5348 647.124 77.1413C647.419 77.7479 647.815 78.2069 648.313 78.5185C648.813 78.83 649.371 78.9858 649.988 78.9858C650.326 78.9858 650.651 78.9394 650.962 78.8466C651.274 78.7538 651.557 78.6162 651.813 78.4339C652.071 78.2483 652.29 78.0213 652.469 77.7528C652.651 77.4811 652.779 77.1695 652.852 76.8182H654.085C653.992 77.3385 653.823 77.8042 653.577 78.2152C653.332 78.6262 653.027 78.9759 652.663 79.2642C652.298 79.5492 651.889 79.7663 651.435 79.9155C650.984 80.0646 650.502 80.1392 649.988 80.1392C649.12 80.1392 648.347 79.9271 647.671 79.5028C646.995 79.0786 646.463 78.4754 646.075 77.6932C645.688 76.911 645.494 75.983 645.494 74.9091C645.494 73.8352 645.688 72.9072 646.075 72.125C646.463 71.3428 646.995 70.7396 647.671 70.3153C648.347 69.8911 649.12 69.679 649.988 69.679C650.502 69.679 650.984 69.7536 651.435 69.9027C651.889 70.0518 652.298 70.2706 652.663 70.5589C653.027 70.844 653.332 71.192 653.577 71.603C653.823 72.0107 653.992 72.4763 654.085 73ZM656.077 69.8182H657.29V77.8324H657.389L662.958 69.8182H664.151V80H662.918V72.0057H662.818L657.27 80H656.077V69.8182ZM666.618 69.8182H667.831V77.8324H667.93L673.499 69.8182H674.692V80H673.459V72.0057H673.359L667.811 80H666.618V69.8182Z" fill="#009247"/>
<line x1="299" y1="105.5" x2="597.351" y2="105.5" stroke="#009247"/>
</svg>
