<svg width="247" height="57" fill="none" xmlns="http://www.w3.org/2000/svg"><path d="M68.444 4.61c-3.232 2.702-4.847 6.463-4.847 11.281v24.945c0 4.819 1.615 8.58 4.847 11.28 3.229 2.7 7.678 4.051 13.346 4.051h34.953v-7.943H81.631c-3.231 0-5.549-.688-6.951-2.065-1.403-1.377-2.106-3.284-2.106-5.72v-8.105h44.169v-7.943h-44.17v-7.865c0-2.54.704-4.514 2.107-5.917 1.402-1.403 3.72-2.105 6.951-2.105h35.112V.558H81.79c-5.668 0-10.117 1.35-13.346 4.052zM177.425 22.843c1.192-1.988 1.788-4.41 1.788-7.27 0-4.767-1.589-8.46-4.766-11.082-3.179-2.622-7.655-3.932-13.427-3.932h-34.874v7.944h34.001c3.229 0 5.732.69 7.506 2.066 1.775 1.377 2.662 3.336 2.662 5.879 0 2.54-.887 4.502-2.662 5.878-1.774 1.377-4.277 2.066-7.506 2.066h-34.001v7.943h34.001c3.284 0 5.798.689 7.547 2.065 1.747 1.38 2.621 3.338 2.621 5.879 0 2.543-.887 4.503-2.662 5.878-1.774 1.379-4.277 2.067-7.506 2.067l-34.001-.08v8.024h34.874c5.772 0 10.248-1.363 13.427-4.092 3.177-2.726 4.766-6.527 4.766-11.4 0-2.751-.596-5.084-1.788-6.99-1.192-1.907-3.191-3.681-5.999-5.323 2.808-1.694 4.807-3.534 5.999-5.52zM197.83 29.627l3.805-15.967c.423-1.642 1.23-2.94 2.422-3.894 1.192-.953 2.633-1.428 4.329-1.428H221.257c1.694 0 3.137.475 4.329 1.428 1.192.954 1.999 2.252 2.422 3.894l3.806 15.967H197.83zm36.414-22.68a14.323 14.323 0 0 0-7.307-5.76 14.469 14.469 0 0 0-4.807-.793h-14.617c-1.642 0-3.231.265-4.766.793a14.17 14.17 0 0 0-7.348 5.76 13.82 13.82 0 0 0-1.868 4.409L182.886 56h8.66l4.391-18.43h37.769L238.097 56h8.66l-10.645-44.645a13.82 13.82 0 0 0-1.868-4.41zM44.676 22.326c-1.775 1.377-4.277 2.065-7.509 2.065H9.602V8.504h27.565c3.232 0 5.734.689 7.509 2.065 1.773 1.377 2.661 3.336 2.661 5.879 0 2.54-.888 4.501-2.661 5.878zm0 23.833c-1.775 1.377-4.277 2.065-7.509 2.065H9.602V32.335h27.565c3.284 0 5.8.69 7.548 2.065 1.749 1.379 2.622 3.337 2.622 5.88 0 2.541-.888 4.502-2.661 5.879zm9.771-23.317c1.19-1.985 1.786-4.41 1.786-7.27 0-4.766-1.587-8.459-4.766-11.08C48.29 1.87 43.814.558 38.042.558H.863v55.61h37.18c5.771 0 10.247-1.363 13.424-4.09 3.18-2.728 4.767-6.527 4.767-11.4 0-2.754-.597-5.086-1.787-6.992-1.192-1.907-3.19-3.68-5.998-5.323 2.807-1.694 4.806-3.534 5.998-5.521z" fill="#2B8A3E"/></svg>